<svg width="166" height="44" viewBox="0 0 166 44" fill="none" xmlns="http://www.w3.org/2000/svg">
<g clip-path="url(#clip0_454_69)">
<path d="M41.6225 6.45294L42.2529 5.58566H46.6978L43.7593 1.17061L40.1814 6.45294H38.9609L43.1018 0.390951C43.2347 0.190982 43.4643 0 43.7796 0C44.0948 0 44.3132 0.17076 44.4573 0.390951L48.5397 6.45294H41.6247H41.6225Z" fill="white"/>
<path d="M49.1973 6.45294V2.48501H50.2285V5.58791H53.167C54.6261 5.58791 55.7137 4.60828 55.7137 3.25568C55.7137 1.90308 54.6171 0.961651 53.167 0.961651H49.1995L49.8683 0.0853806H53.1693C55.2386 0.0853806 56.736 1.37058 56.736 3.20625C56.736 5.04192 55.2183 6.45294 53.1693 6.45294H49.2018H49.1973Z" fill="white"/>
<path d="M56.293 0.0853806H57.5629L61.0733 5.35873L64.649 0.0853806H65.8604L61.7308 6.14737C61.5867 6.35633 61.3773 6.53832 61.0531 6.53832C60.7491 6.53832 60.5194 6.36756 60.3753 6.14737L56.293 0.0853806Z" fill="white"/>
<path d="M66.3646 6.45294L66.9951 5.58566H71.44L68.5015 1.17061L64.9235 6.45294H63.7031L67.8418 0.390951C67.9746 0.190982 68.2043 0 68.5195 0C68.8348 0 69.0532 0.17076 69.1973 0.390951L73.2796 6.45294H66.3646Z" fill="white"/>
<path d="M74.8446 1.42675V6.45294H73.9102V0.647092C73.9102 0.190982 74.1759 0 74.4821 0C74.6149 0 74.7681 0.0381964 74.9302 0.199969L80.0528 5.09135V0.0853802H80.9963V5.86202C80.9963 6.31813 80.7193 6.50912 80.4153 6.50912C80.2825 6.50912 80.1384 6.47991 79.9762 6.31813L74.8446 1.42675Z" fill="white"/>
<path d="M85.5827 6.45294C83.4638 6.45294 81.9102 5.05316 81.9102 3.20625C81.9102 1.35934 83.4638 0.0853806 85.5827 0.0853806H89.6177L88.94 0.961651H85.5827C84.333 0.961651 82.9392 1.66716 82.9392 3.25568C82.9392 4.8442 84.342 5.58791 86.1434 5.58791H89.6155L88.9377 6.45519H85.5804L85.5827 6.45294Z" fill="white"/>
<path d="M90.2666 6.45294V0.0853806H97.0397L96.362 0.961651H91.2979V2.87596H96.7447L96.1525 3.63765H91.2979V5.58791H97.087L96.4092 6.45519H90.2666V6.45294Z" fill="white"/>
<path d="M97.7236 6.45294V2.48501H98.7549V5.58791H101.693C103.152 5.58791 104.24 4.60828 104.24 3.25568C104.24 1.90308 103.143 0.961651 101.693 0.961651H97.7259L98.3946 0.0853806H101.696C103.765 0.0853806 105.262 1.37058 105.262 3.20625C105.262 5.04192 103.745 6.45294 101.696 6.45294H97.7281H97.7236Z" fill="white"/>
<path d="M60.1184 23.1425C60.1184 28.89 56.1666 31.4626 48.333 31.4626C40.4993 31.4626 36.5498 28.89 36.5498 23.1425C36.5498 17.3951 40.4768 14.8472 48.333 14.8472C56.1892 14.8472 60.1184 17.3951 60.1184 23.1425ZM55.1534 23.1425C55.1534 19.6801 53.3453 19.0308 48.333 19.0308C43.3207 19.0308 41.5126 19.6801 41.5126 23.1425C41.5126 26.6049 43.3207 27.279 48.333 27.279C53.3453 27.279 55.1534 26.6049 55.1534 23.1425Z" fill="white"/>
<path d="M83.376 26.5083C83.376 29.1776 81.9057 31.1975 76.8213 31.1975H62.6514V21.4102H76.9182C77.641 21.4102 78.3165 21.1451 78.3165 20.3272C78.3165 19.5094 77.6184 19.2937 76.9182 19.2937H62.6514L66.0244 15.11H76.6997C80.5547 15.11 83.036 16.5997 83.036 19.5588C83.036 21.4574 81.9507 22.5157 80.8429 22.9246C82.2412 23.3335 83.3738 24.5828 83.3738 26.5083H83.376ZM67.6659 24.8479V27.061H76.8461C77.9314 27.061 78.3885 26.6768 78.3885 25.9309C78.3885 25.2343 77.9314 24.8479 76.8461 24.8479H67.6659Z" fill="white"/>
<path d="M90.9488 31.1975H85.959V15.11H90.9488V31.1975Z" fill="white"/>
<path d="M111.53 27.061L108.301 31.1975H94.0586V15.11H99.0484V27.061H111.532H111.53Z" fill="white"/>
<path d="M118.257 31.1975H113.268V15.11H118.257V31.1975Z" fill="white"/>
<path d="M141.391 15.11L138.162 19.2937H132.402V31.1975H127.412V19.2937H119.847L123.076 15.11H141.391Z" fill="white"/>
<path d="M166 15.11L156.432 25.8837V31.1975H151.42V25.859L141.587 15.11H147.998L151.852 19.5813C152.359 20.1587 153.708 21.6259 154.046 22.1067C154.359 21.6506 154.912 20.9518 156.07 19.5588L159.731 15.11H165.998H166Z" fill="white"/>
<path d="M139.495 43.9011V41.178H134.834V43.9011H133.854V37.8504H134.834V40.3466H139.495V37.8504H140.474V43.9011H139.495Z" fill="white"/>
<path d="M147.901 37.8481H148.889V41.2589C148.889 43.0855 147.709 44 145.372 44C142.661 44 141.492 43.0855 141.492 41.2589V37.8481H142.472V41.2589C142.472 42.6159 143.278 43.1866 145.372 43.1866C147.466 43.1866 147.901 42.6159 147.901 41.2589V37.8481Z" fill="white"/>
<path d="M149.9 43.9011V40.4994H154.996C155.604 40.4994 155.984 40.1467 155.984 39.6231C155.984 38.9985 155.559 38.6817 154.879 38.6817H149.93L150.601 37.8504H154.843C156.131 37.8504 156.919 38.4211 156.919 39.4883C156.919 40.2208 156.41 40.6724 155.975 40.7915C156.502 40.9263 157.036 41.4071 157.036 42.2295C157.036 43.1619 156.475 43.9034 154.834 43.9034H149.903L149.9 43.9011ZM150.88 41.2229V43.0765H154.841C155.694 43.0765 156.057 42.6609 156.057 42.1621C156.057 41.6004 155.712 41.2206 155.014 41.2206H150.88V41.2229Z" fill="white"/>
<path d="M31.713 15.173L12.0218 3.46014C6.72133 0.310065 0 4.11847 0 10.2748V33.6982C0 39.8546 6.72133 43.6652 12.0218 40.5129L31.7152 28.8023C36.8896 25.7264 36.8896 18.2489 31.7152 15.173H31.713Z" fill="url(#paint0_linear_454_69)"/>
<path d="M32.481 28.2721L29.3646 17.4535C28.8963 15.8403 27.6984 15.0629 26.3428 15.0629C24.9873 15.0629 23.9988 15.7908 23.3728 16.9075L20.5852 21.8461C19.0473 24.5243 18.3695 25.7983 17.7976 27.0183C17.1987 25.796 16.5209 24.4974 14.9852 21.8191L12.1976 16.9053C11.5739 15.7616 10.635 15.0606 9.25466 15.0606C7.87436 15.0606 6.67421 15.8403 6.20585 17.4513L1.7002 32.7388H6.98944L8.63094 26.6813C9.15108 24.731 9.54288 23.2751 9.80407 21.8978C10.3512 23.0684 10.9772 24.2884 12.2539 26.6813L14.5979 31.0739C15.5099 32.7905 16.3948 33.0242 17.6985 33.0242C19.0023 33.0242 19.8872 32.7905 20.7991 31.0739L23.1432 26.706C24.3411 24.4434 24.9941 23.1178 25.566 21.8978C25.852 23.302 26.2167 24.7063 26.7639 26.6813L27.946 31.0424L31.7176 28.8001C31.9901 28.6383 32.2423 28.4563 32.4855 28.2721H32.481Z" fill="white"/>
<path d="M162.594 11.2724V11.8207H162.843C163.044 11.8207 163.174 11.7959 163.235 11.7443C163.294 11.6926 163.325 11.6252 163.325 11.5398C163.325 11.4544 163.303 11.396 163.256 11.3466C163.208 11.2971 163.082 11.2724 162.873 11.2724H162.594ZM162.4 12.6363V11.1174H163.033C163.201 11.1174 163.332 11.1556 163.418 11.2297C163.505 11.3061 163.548 11.405 163.548 11.5218C163.548 11.6207 163.517 11.7106 163.449 11.7915C163.384 11.8746 163.267 11.9263 163.098 11.951C163.208 11.9914 163.289 12.0476 163.343 12.1217C163.366 12.1509 163.402 12.2116 163.449 12.306C163.496 12.4003 163.548 12.5104 163.602 12.6385H163.375C163.242 12.3442 163.136 12.1599 163.06 12.088C162.983 12.0161 162.857 11.9802 162.677 11.9802H162.591V12.6385H162.4V12.6363ZM164.255 11.8611C164.255 11.5106 164.131 11.2118 163.886 10.9646C163.638 10.7175 163.339 10.5939 162.988 10.5939C162.636 10.5939 162.339 10.7175 162.091 10.9646C161.844 11.2163 161.72 11.5128 161.72 11.8589C161.72 12.2049 161.844 12.5037 162.091 12.7509C162.339 13.0003 162.639 13.1238 162.988 13.1238C163.337 13.1238 163.634 13.0003 163.884 12.7509C164.131 12.5037 164.255 12.2049 164.255 11.8589V11.8611ZM164.433 11.8611C164.433 12.2565 164.291 12.5958 164.01 12.8789C163.726 13.162 163.386 13.3036 162.988 13.3036C162.589 13.3036 162.249 13.162 161.965 12.8812C161.684 12.5981 161.542 12.2588 161.542 11.8611C161.542 11.4634 161.684 11.1241 161.968 10.841C162.249 10.5602 162.589 10.4186 162.988 10.4186C163.386 10.4186 163.724 10.5602 164.01 10.841C164.291 11.1264 164.433 11.4657 164.433 11.8611Z" fill="white"/>
</g>
<defs>
<linearGradient id="paint0_linear_454_69" x1="0" y1="21.9876" x2="35.5927" y2="21.9876" gradientUnits="userSpaceOnUse">
<stop stop-color="#F47D5B"/>
<stop offset="1" stop-color="#EB2C68"/>
</linearGradient>
<clipPath id="clip0_454_69">
<rect width="166" height="44" fill="white"/>
</clipPath>
</defs>
</svg>
