<svg xmlns="http://www.w3.org/2000/svg" width="117.227" height="52.46" viewBox="0 0 117.227 52.46"><defs><style>.a{fill:#0c173a;}.b{fill:#dd0b1f;}</style></defs><g transform="translate(-637.526 -415.164)"><path class="a" d="M878.424,452.872a29.954,29.954,0,0,1-7.126-.712,10.3,10.3,0,0,1-4.56-2.28,8.559,8.559,0,0,1-2.424-4.106,23.4,23.4,0,0,1-.712-6.242V428.5a23.474,23.474,0,0,1,.712-6.214,8.573,8.573,0,0,1,2.424-4.134,10.321,10.321,0,0,1,4.56-2.28,30.067,30.067,0,0,1,7.126-.712H883.7v7.469h-4.876a13.9,13.9,0,0,0-3.222.313,3.845,3.845,0,0,0-3.078,2.992,11.918,11.918,0,0,0-.313,2.964v10.288a13.138,13.138,0,0,0,.313,3.164,3.709,3.709,0,0,0,1.083,1.909,4.283,4.283,0,0,0,2.053.942,16.633,16.633,0,0,0,3.164.255h4.909a15.827,15.827,0,0,0,3.078-.255,3.726,3.726,0,0,0,3.136-2.995,13.69,13.69,0,0,0,.341-3.363V429.84h6.827l1.839,4.25v5.442a23.487,23.487,0,0,1-.712,6.242,8.576,8.576,0,0,1-2.424,4.106,10.322,10.322,0,0,1-4.588,2.28,30.637,30.637,0,0,1-7.212.712Z" transform="translate(-144.2 0)"/><path class="b" d="M0,0H11.539a2.536,2.536,0,0,1,2.536,2.536V7.469a0,0,0,0,1,0,0H0a0,0,0,0,1,0,0V0A0,0,0,0,1,0,0Z" transform="translate(740.679 429.808)"/><path class="a" d="M750.374,452.821h-8.587V420.469l8.587-5.306Z" transform="translate(-66.502 0)"/><path class="b" d="M646.471,452.821l-8.7-.006,18.5-37.651,4.405,8.745Z" transform="translate(-0.157 0)"/><path class="a" d="M0,0H0A8.587,8.587,0,0,1,8.587,8.587v29.07a0,0,0,0,1,0,0H0a0,0,0,0,1,0,0V0A0,0,0,0,1,0,0Z" transform="translate(656.105 415.164)"/><path class="b" d="M698.056,452.825l-9.292-.006,16.648-33.886a6.614,6.614,0,0,1,5.916-3.762l5.226,0Z" transform="translate(-32.682 -0.005)"/><path class="a" d="M794.079,452.991a29.956,29.956,0,0,1-7.126-.712,10.313,10.313,0,0,1-4.56-2.28,8.559,8.559,0,0,1-2.424-4.106,23.385,23.385,0,0,1-.712-6.242v-24.3h8.608v23.96a11.316,11.316,0,0,0,.313,2.878,4.091,4.091,0,0,0,1.114,1.937,4.664,4.664,0,0,0,2.136,1.114,14.077,14.077,0,0,0,3.394.341h13.346v7.411Z" transform="translate(-90.402 -0.119)"/><g transform="translate(637.526 459.153)"><path class="a" d="M645.82,537.045v8.169h-1.134v-6.278a9.081,9.081,0,0,1-.492,1.134l-1.967,3.82h-1.122l-1.928-3.82q-.164-.315-.309-.611t-.234-.51v6.265h-1.109v-8.169h1.323l1.841,3.6a18.725,18.725,0,0,1,1,2.206,9.438,9.438,0,0,1,.385-.971q.245-.542.611-1.235l1.853-3.6Z" transform="translate(-637.526 -536.894)"/><path class="a" d="M667.066,544.924a2.733,2.733,0,0,1-1.122-1.217,4.084,4.084,0,0,1-.365-1.758v-4.9h1.16V541.7q0,2.66,2.294,2.659a2.012,2.012,0,0,0,1.7-.674,3.055,3.055,0,0,0,.524-1.91v-4.727h1.159v4.866a3.86,3.86,0,0,1-.453,1.973,2.7,2.7,0,0,1-1.23,1.128,4.231,4.231,0,0,1-1.771.353A3.707,3.707,0,0,1,667.066,544.924Z" transform="translate(-655.419 -536.894)"/><path class="a" d="M690.755,544.2h4.009v1.009H689.6v-8.169h1.159Z" transform="translate(-670.738 -536.894)"/><path class="a" d="M708.112,537.045v1.008h-2.824v7.16h-1.16v-7.16h-2.836v-1.008Z" transform="translate(-678.199 -536.894)"/><path class="a" d="M723.6,545.213v-8.169h1.159v8.169Z" transform="translate(-692.429 -536.894)"/><path class="a" d="M742.025,544.2h4.008v1.009h-5.168v-8.169h1.159Z" transform="translate(-703.44 -536.894)"/><path class="a" d="M759.776,544.23h4.008v.983h-5.168v-8.169h5.105v.983h-3.945v2.546h3.454l-.127.958h-3.327Z" transform="translate(-714.762 -536.894)"/><path class="a" d="M781.449,537.045h1.159v.076l-3.012,8.093h-1.412l-3-8.093v-.076h1.21l2.534,7.059Z" transform="translate(-725.33 -536.894)"/><path class="a" d="M800.289,544.23H804.3v.983h-5.169v-8.169h5.106v.983h-3.945v2.546h3.454l-.127.958h-3.327Z" transform="translate(-740.603 -536.894)"/><path class="a" d="M819.154,544.2h4.008v1.009h-5.168v-8.169h1.159Z" transform="translate(-752.637 -536.894)"/><path class="a" d="M849.63,540.421V544.4a7.977,7.977,0,0,1-1.4.523,6.134,6.134,0,0,1-1.526.17,4.132,4.132,0,0,1-2.218-.542,3.187,3.187,0,0,1-1.273-1.487,5.557,5.557,0,0,1-.4-2.194,4.925,4.925,0,0,1,.529-2.414,3.291,3.291,0,0,1,1.412-1.393,4.3,4.3,0,0,1,1.953-.441,5.359,5.359,0,0,1,1.463.189,4.972,4.972,0,0,1,1.261.555l-.5.882a4.315,4.315,0,0,0-.964-.447,3.755,3.755,0,0,0-1.167-.17,2.477,2.477,0,0,0-2.086.851,3.72,3.72,0,0,0-.662,2.339,4,4,0,0,0,.63,2.414,2.388,2.388,0,0,0,2.055.85,5,5,0,0,0,1.739-.315V541.4h-2.092l.126-.983Z" transform="translate(-768.465 -536.627)"/><path class="a" d="M872.542,545.138v.076h-1.336l-2.357-3.189h-1.21v3.189h-1.159v-8.169h2.66a3.883,3.883,0,0,1,1.62.3,2.213,2.213,0,0,1,1,.845,2.358,2.358,0,0,1,.334,1.26,2.588,2.588,0,0,1-.221,1.072,2.3,2.3,0,0,1-.662.851,2.776,2.776,0,0,1-1.1.523Zm-4.9-4.072h1.324a2.171,2.171,0,0,0,1.431-.41,1.428,1.428,0,0,0,.485-1.154,1.355,1.355,0,0,0-.448-1.1,1.989,1.989,0,0,0-1.317-.378h-1.475Z" transform="translate(-783.562 -536.894)"/><path class="a" d="M886.619,544.562a3.349,3.349,0,0,1-1.293-1.493,5.357,5.357,0,0,1-.435-2.231,4.774,4.774,0,0,1,.53-2.358,3.379,3.379,0,0,1,1.412-1.4,4.206,4.206,0,0,1,1.953-.454,3.849,3.849,0,0,1,2.079.536,3.356,3.356,0,0,1,1.293,1.494,5.357,5.357,0,0,1,.435,2.232,4.768,4.768,0,0,1-.53,2.357,3.38,3.38,0,0,1-1.412,1.4,4.207,4.207,0,0,1-1.953.454A3.847,3.847,0,0,1,886.619,544.562Zm3.573-.857a2.472,2.472,0,0,0,.895-1.128,4.382,4.382,0,0,0,.3-1.677,4.788,4.788,0,0,0-.284-1.721,2.467,2.467,0,0,0-.864-1.154,2.421,2.421,0,0,0-1.449-.416,2.585,2.585,0,0,0-1.494.41,2.47,2.47,0,0,0-.895,1.128,4.375,4.375,0,0,0-.3,1.676,4.789,4.789,0,0,0,.284,1.721,2.465,2.465,0,0,0,.864,1.153,2.418,2.418,0,0,0,1.449.416A2.585,2.585,0,0,0,890.192,543.705Z" transform="translate(-795.305 -536.627)"/><path class="a" d="M911.509,544.924a2.728,2.728,0,0,1-1.122-1.217,4.067,4.067,0,0,1-.366-1.758v-4.9h1.159V541.7q0,2.66,2.295,2.659a2.013,2.013,0,0,0,1.7-.674,3.056,3.056,0,0,0,.523-1.91v-4.727h1.16v4.866a3.859,3.859,0,0,1-.454,1.973,2.7,2.7,0,0,1-1.228,1.128,4.238,4.238,0,0,1-1.771.353A3.707,3.707,0,0,1,911.509,544.924Z" transform="translate(-811.335 -536.894)"/><path class="a" d="M938.412,537.354a2.232,2.232,0,0,1,1.021.87,2.464,2.464,0,0,1,.341,1.3,2.672,2.672,0,0,1-.347,1.349,2.463,2.463,0,0,1-1.047.964,3.735,3.735,0,0,1-1.72.359H935.2v3.013h-1.16v-8.169h2.722A3.986,3.986,0,0,1,938.412,537.354Zm-.347,3.435a1.51,1.51,0,0,0,.5-1.21,1.439,1.439,0,0,0-.461-1.154,2.042,2.042,0,0,0-1.367-.4H935.2v3.189h1.374A2.239,2.239,0,0,0,938.066,540.789Z" transform="translate(-826.654 -536.894)"/></g><g transform="translate(742.335 415.231)"><path class="a" d="M932.03,417.9a2.555,2.555,0,1,1-.748-1.8A2.454,2.454,0,0,1,932.03,417.9Zm-.311,0a2.252,2.252,0,1,0-.658,1.58A2.162,2.162,0,0,0,931.719,417.9Zm-3.277,1.373v-2.689h1.116a1.011,1.011,0,0,1,.681.2.661.661,0,0,1,.231.517.746.746,0,0,1-.174.478.356.356,0,1,0-.187.581,2.431,2.431,0,0,1,.187.326q.127.249.271.586h-.4a3.667,3.667,0,0,0-.558-.975.965.965,0,0,0-.675-.191h-.15v1.166Zm.341-2.415v.968h.441a1.18,1.18,0,0,0,.7-.137.455.455,0,0,0,.157-.361.469.469,0,0,0-.123-.341q-.124-.13-.675-.13Z" transform="translate(-926.926 -415.35)"/></g></g></svg>