<svg width="41" height="41" viewBox="0 0 41 41" fill="none" xmlns="http://www.w3.org/2000/svg">
<path d="M41 2.5625C41 11.6594 34.2254 19.1787 25.4488 20.3398C24.8803 16.0637 22.9984 12.2039 20.2197 9.18496C23.2867 3.70762 29.1484 0 35.875 0H38.4375C39.8549 0 41 1.14512 41 2.5625ZM0 7.6875C0 6.27012 1.14512 5.125 2.5625 5.125H5.125C15.0307 5.125 23.0625 13.1568 23.0625 23.0625V25.625V38.4375C23.0625 39.8549 21.9174 41 20.5 41Cnan nan 17.9375 39.8549 17.9375 38.4375V25.625C8.03184 25.625 0 17.5932 0 7.6875Z" fill="#20B15A"/>
</svg>
