<svg width="51" height="51" viewBox="0 0 51 51" fill="none" xmlns="http://www.w3.org/2000/svg">
<path d="M36.125 8.5H14.875C8.5 8.5 4.25 11.6875 4.25 19.125V26.69C4.25 27.4763 5.0575 27.965 5.75875 27.6462C7.84125 26.69 10.2425 26.3288 12.7713 26.775C18.36 27.7738 22.4613 32.9587 22.3125 38.6325C22.2913 39.525 22.1637 40.3962 21.93 41.2463C21.76 41.905 22.2913 42.5213 22.9713 42.5213H36.125C42.5 42.5213 46.75 39.3337 46.75 31.8962V19.125C46.75 11.6875 42.5 8.5 36.125 8.5ZM25.5 30.8125C22.5675 30.8125 20.1875 28.4325 20.1875 25.5C20.1875 22.5675 22.5675 20.1875 25.5 20.1875C28.4325 20.1875 30.8125 22.5675 30.8125 25.5C30.8125 28.4325 28.4325 30.8125 25.5 30.8125ZM40.9062 29.75C40.9062 30.6213 40.1838 31.3438 39.3125 31.3438C38.4412 31.3438 37.7188 30.6213 37.7188 29.75V21.25C37.7188 20.3787 38.4412 19.6562 39.3125 19.6562C40.1838 19.6562 40.9062 20.3787 40.9062 21.25V29.75Z" fill="#20B15A"/>
<path d="M10.625 29.75C5.92875 29.75 2.125 33.5538 2.125 38.25C2.125 39.8438 2.57125 41.3525 3.3575 42.6275C4.82375 45.0925 7.5225 46.75 10.625 46.75C13.7275 46.75 16.4263 45.0925 17.8925 42.6275C18.6788 41.3525 19.125 39.8438 19.125 38.25C19.125 33.5538 15.3212 29.75 10.625 29.75ZM14.8112 37.5487L10.285 41.735C9.9875 42.0112 9.58375 42.16 9.20125 42.16C8.7975 42.16 8.39375 42.0113 8.075 41.6925L5.97125 39.5887C5.355 38.9725 5.355 37.9525 5.97125 37.3362C6.5875 36.72 7.6075 36.72 8.22375 37.3362L9.24375 38.3562L12.6437 35.2112C13.2812 34.6162 14.3013 34.6588 14.8963 35.2963C15.4913 35.9338 15.4487 36.9538 14.8112 37.5487Z" fill="#20B15A"/>
</svg>
