<svg width="30" height="30" viewBox="0 0 30 30" fill="none" xmlns="http://www.w3.org/2000/svg">
<path d="M17.5 14.9999C17.5 16.3807 16.3807 17.4999 15 17.4999C13.6192 17.4999 12.5 16.3807 12.5 14.9999C12.5 13.6193 13.6192 12.4999 15 12.4999C16.3807 12.4999 17.5 13.6193 17.5 14.9999Z" fill="#475E81"/>
<path d="M20.3032 9.69666C23.2322 12.6256 23.2322 17.3743 20.3032 20.3033M9.6967 20.3032C6.76776 17.3743 6.76776 12.6256 9.6967 9.69662M6.16116 23.8388C1.27961 18.9572 1.27961 11.0427 6.16116 6.16113M23.8389 6.16118C28.7204 11.0427 28.7204 18.9573 23.8389 23.8388M17.5 14.9999C17.5 16.3807 16.3807 17.4999 15 17.4999C13.6192 17.4999 12.5 16.3807 12.5 14.9999C12.5 13.6193 13.6192 12.4999 15 12.4999C16.3807 12.4999 17.5 13.6193 17.5 14.9999Z" stroke="#475E81" stroke-width="2" stroke-linecap="round" stroke-linejoin="round"/>
</svg>
