<svg width="41" height="41" viewBox="0 0 41 41" fill="none" xmlns="http://www.w3.org/2000/svg">
<path fill-rule="evenodd" clip-rule="evenodd" d="M15.375 3.41683C15.375 2.47334 16.1398 1.7085 17.0833 1.7085H23.9167C24.8602 1.7085 25.625 2.47334 25.625 3.41683C25.625 4.36032 24.8602 5.12516 23.9167 5.12516H17.0833C16.1398 5.12516 15.375 4.36032 15.375 3.41683ZM31.2504 5.62552C31.9175 4.95838 32.9992 4.95838 33.6663 5.62552L37.083 9.04219C37.7501 9.70934 37.7501 10.791 37.083 11.4581C36.4158 12.1253 35.3342 12.1253 34.667 11.4581L31.2504 8.04147C30.5832 7.37432 30.5832 6.29267 31.2504 5.62552ZM20.5 10.2502C13.8956 10.2502 8.54167 15.6041 8.54167 22.2085C8.54167 28.8129 13.8956 34.1668 20.5 34.1668C27.1044 34.1668 32.4583 28.8129 32.4583 22.2085C32.4583 15.6041 27.1044 10.2502 20.5 10.2502ZM5.125 22.2085C5.125 13.7171 12.0086 6.8335 20.5 6.8335C28.9914 6.8335 35.875 13.7171 35.875 22.2085C35.875 30.6999 28.9914 37.5835 20.5 37.5835C12.0086 37.5835 5.125 30.6999 5.125 22.2085ZM20.5 13.6668C21.4435 13.6668 22.2083 14.4317 22.2083 15.3752V22.2085C22.2083 23.152 21.4435 23.9168 20.5 23.9168C19.5565 23.9168 18.7917 23.152 18.7917 22.2085V15.3752C18.7917 14.4317 19.5565 13.6668 20.5 13.6668Z" fill="#20B15A"/>
</svg>
