<svg width="107" height="86" viewBox="0 0 107 86" fill="none" xmlns="http://www.w3.org/2000/svg">
<path d="M48.8223 39.5692C48.9746 39.1885 49.1649 38.8077 49.3553 38.427C42.8831 33.8965 37.2865 25.1019 36.2205 21.1805C33.8601 23.0841 33.822 27.9573 33.822 27.9573C40.0658 36.4092 46.7283 38.922 48.8223 39.5692Z" fill="#D81E33"/>
<path d="M48.0606 41.9677C48.1368 41.625 48.2129 41.2824 48.3271 40.9778C41.9311 38.8839 35.1543 32.9447 33.3269 29.9751C31.8421 32.1071 32.9842 36.1046 32.9842 36.1046C40.1798 41.5489 46.3093 41.9677 48.0606 41.9677Z" fill="#099447"/>
<path d="M50.1549 37.0945C50.4214 36.6758 50.726 36.295 51.0306 35.9143C45.434 28.7188 42.236 17.145 42.4264 12.4241C39.1522 13.7185 37.439 19.1247 37.439 19.1247C41.5126 30.6985 48.099 35.762 50.1549 37.0945Z" fill="#D81E33"/>
<path d="M53.7718 33.4396C49.9266 23.8074 50.0789 10.1016 51.754 5C47.7565 5.38072 44.2158 10.7488 44.2158 10.7488C45.0153 24.7973 50.688 32.3736 52.4774 34.4294C52.8962 34.0868 53.315 33.7441 53.7718 33.4396Z" fill="#D81E33"/>
<path d="M49.2412 52.6278C47.6041 54.6075 44.6726 56.2446 43.3401 56.473C43.9112 57.3106 45.5482 57.4248 45.5482 57.4248C47.9848 55.8639 49.0509 54.1507 49.5077 53.1989L49.2412 52.6278Z" fill="white"/>
<path d="M48.061 48.8967C44.1015 50.5338 38.3146 50.4577 36.1826 49.7343C36.3349 51.3714 38.505 52.8562 38.505 52.8562C44.1777 52.5897 47.2996 50.3054 48.2133 49.544L48.061 48.8967Z" fill="white"/>
<path d="M47.7181 44.5565C47.7181 44.2139 47.7562 43.9093 47.7942 43.5666C41.9312 43.1859 34.9641 39.7595 32.7559 37.6655C31.9945 39.7975 33.86 42.9194 33.86 42.9194C40.8271 45.7748 45.9287 45.0134 47.7181 44.5565Z" fill="#099447"/>
<path d="M48.7842 51.4476L48.5938 50.9146C45.8526 52.9324 41.3983 53.9984 39.6089 53.8461C40.0277 55.0644 42.0074 55.7877 42.0074 55.7877C46.2334 54.4933 48.2131 52.2471 48.7842 51.4476Z" fill="white"/>
<path d="M47.8326 47.4881C47.7945 47.2216 47.7564 46.917 47.7564 46.6505C42.7309 47.3739 36.1826 45.6987 33.9364 44.29C33.6699 46.2317 35.8019 48.5541 35.8019 48.5541C42.236 49.7724 46.4239 48.1734 47.8326 47.4881Z" fill="#099447"/>
<path d="M54.6096 35.0387C54.6096 35.0387 55.4092 37.2469 55.7899 38.1606C56.1325 39.0743 56.8178 40.521 55.0284 42.5769C54.267 43.4906 53.0106 45.1658 52.4395 47.3739C51.5258 50.9907 52.2873 55.7497 57.998 58.6432C63.9753 61.6889 65.6885 52.8943 66.8307 53.275C67.7825 53.5796 68.5439 54.0365 70.9424 53.5796C70.181 54.2269 68.3535 54.3411 67.2494 55.369C66.1454 56.3589 62.6047 62.9453 59.064 63.4021C61.1199 61.4224 59.3686 60.5087 57.8838 59.7853C51.7162 56.9299 49.3938 50.8004 49.3938 45.813C49.4319 41.2444 51.3735 37.856 54.6096 35.0387Z" fill="white"/>
<path d="M67.9724 48.3637C66.2592 45.3561 61.7667 45.0515 58.5306 46.6124C55.3326 48.1734 52.9341 52.4374 52.9341 52.4374C59.0256 44.8231 64.2033 46.4601 66.1069 48.1734L66.2211 48.2876C66.3734 48.4399 66.6018 48.7444 66.3353 48.8587L65.9165 48.9729C65.4216 49.011 64.6221 48.3257 64.6221 48.3257C65.2693 50.9907 66.678 50.0389 67.0967 49.6962C67.3632 50.5338 67.0967 50.9526 67.0967 50.9526C67.5155 50.6861 68.0105 50.5719 68.6196 50.648C71.4369 51.0668 71.2466 53.9603 71.2466 54.8359C73.2263 49.9627 67.9724 48.3637 67.9724 48.3637Z" fill="white"/>
<path d="M6.50761 74.1273L6.23547 74.2529L6.10986 74.5251L6.23547 74.7972L6.50761 74.9228L6.75882 74.7972L6.86349 74.5251L6.75882 74.2529" fill="white"/>
<path d="M7.38658 74.1273L7.11444 74.2529L7.00977 74.5251L7.11444 74.7972L7.38658 74.9228L7.63779 74.7972L7.76339 74.5251L7.63779 74.2529" fill="white"/>
<path d="M15.5928 70.066L15.2997 70.1707L15.1951 70.4428L15.2997 70.7359L15.5928 70.8406L15.865 70.7359L15.9696 70.4428L15.865 70.1707" fill="white"/>
<path d="M15.2577 73.1643H9.9195V72.4107C9.9195 72.2223 9.89856 72.0548 9.85669 71.8874C9.81483 71.7408 9.75202 71.5943 9.64735 71.4896C9.54268 71.3849 9.41708 71.3012 9.24961 71.2384C9.08214 71.1756 8.87279 71.1547 8.64252 71.1547C8.47505 71.1547 8.32851 71.1547 8.16104 71.1756C8.0145 71.1965 7.86796 71.2175 7.70049 71.2593V73.1643H7.17714C6.905 73.1643 6.65379 73.1434 6.46538 73.0806C6.27698 73.0387 6.13044 72.955 6.00483 72.8503C5.90016 72.7457 5.81643 72.641 5.75363 72.4944C5.71176 72.3479 5.69082 72.2014 5.69082 72.013C5.69082 71.8664 5.71176 71.7199 5.73269 71.5943C5.75362 71.4687 5.79549 71.3431 5.83736 71.1965L5.10467 71.3221C5.08374 71.4477 5.0628 71.5733 5.04187 71.6989C5.02093 71.8455 5 71.9711 5 72.0758C5 72.2851 5.04187 72.4944 5.10467 72.6829C5.16747 72.8713 5.27214 73.0597 5.43961 73.2062C5.58615 73.3527 5.81643 73.4783 6.06764 73.5621C6.33978 73.6458 6.67472 73.6877 7.07247 73.6877H8.39131V71.7199L8.49598 71.6989H8.62159C8.85186 71.6989 8.9984 71.7618 9.10307 71.8455C9.18681 71.9502 9.22867 72.1176 9.22867 72.3688V73.6667H15.9485V71.1756H15.2577" fill="white"/>
<path d="M23.6942 73.1643H23.422C23.1499 73.1643 22.9615 73.1015 22.8568 72.9759C22.7521 72.8503 22.6893 72.6619 22.6893 72.3688C22.6893 72.1804 22.7312 72.013 22.8359 71.8873C22.9405 71.7617 23.0452 71.6989 23.1917 71.6989C23.3383 71.6989 23.443 71.7617 23.5267 71.8664C23.6104 71.9711 23.6732 72.1386 23.6732 72.3688M26.7924 73.1643H24.385V72.4735C24.385 72.2642 24.3641 72.0967 24.3012 71.9292C24.2594 71.7617 24.1756 71.6361 24.0919 71.5105C24.0082 71.3849 23.8826 71.3012 23.757 71.2384C23.6104 71.1756 23.4639 71.1547 23.2755 71.1547C23.0871 71.1547 22.8987 71.1756 22.7521 71.2384C22.5847 71.3012 22.4591 71.3849 22.3544 71.4896C22.2497 71.5943 22.145 71.7408 22.0822 71.9292C22.0194 72.0967 21.9985 72.306 21.9985 72.5572L21.9776 72.7666L21.8938 72.955L21.7682 73.1015L21.5798 73.1643H18.7537V73.1434C18.7537 72.9131 18.7119 72.6828 18.6491 72.4526C18.5863 72.2223 18.4607 72.013 18.3141 71.8245C18.1676 71.6361 17.9582 71.4687 17.728 71.3221C17.4768 71.1756 17.1837 71.0919 16.8069 71.0291L16.765 71.6152C17.0371 71.6989 17.2674 71.7827 17.4349 71.9083C17.6024 72.0339 17.728 72.1595 17.8326 72.306C17.9164 72.4526 17.9792 72.5991 18.021 72.7456C18.0629 72.8922 18.0629 73.0387 18.0629 73.1643H16.4719V73.7295H21.4542C21.6845 73.7295 21.852 73.6877 21.9776 73.6039C22.1032 73.5202 22.1869 73.4155 22.2288 73.2481L22.3335 73.4155L22.5428 73.5621L22.8568 73.6667C22.9824 73.6877 23.1289 73.7086 23.2964 73.7086H27.4832V69.7939H26.7924V73.1643Z" fill="white"/>
<path d="M28.6764 69.8358C28.488 69.8567 28.3205 69.8776 28.1321 69.8986V70.3382L28.3414 70.3591L28.5508 70.3801V73.7504H29.2416V69.8358C29.0532 69.8148 28.8648 69.8148 28.6764 69.8358Z" fill="white"/>
<path d="M32.2982 72.1176L32.5913 71.992L32.6959 71.7198L32.5913 71.4477L32.2982 71.343L32.0261 71.4477L31.9214 71.7198L32.0261 71.992" fill="white"/>
<path d="M33.0307 73.2689C33.0307 73.5201 33.0098 73.7086 32.9888 73.8551C32.947 74.0226 32.9051 74.1482 32.8423 74.2319L32.612 74.4412L32.298 74.504C32.0468 74.504 31.8584 74.3994 31.7328 74.211C31.6281 74.0016 31.5653 73.7086 31.5653 73.2689C31.5653 73.1224 31.5863 72.9759 31.6072 72.8293C31.6491 72.6828 31.6909 72.5153 31.7537 72.3269L31.021 72.4525C30.9792 72.5991 30.9373 72.7665 30.9164 72.934C30.8954 73.1015 30.8745 73.2689 30.8745 73.3945C30.8745 73.6458 30.8954 73.8551 30.9582 74.0644C31.0211 74.2738 31.0839 74.4412 31.2095 74.5878C31.3141 74.7343 31.4607 74.8599 31.6491 74.9437C31.8165 75.0274 32.0259 75.0693 32.2771 75.0693C32.5074 75.0693 32.7376 75.0483 32.9051 74.9646C33.0935 74.9018 33.2401 74.7971 33.3657 74.6506C33.4913 74.504 33.575 74.3156 33.6378 74.0854C33.7006 73.8551 33.7215 73.562 33.7215 73.2061V71.2174H33.0307" fill="white"/>
<path d="M34.7475 69.8358C34.5591 69.8567 34.3916 69.8776 34.2241 69.8986V70.3382L34.4335 70.3591L34.6219 70.3801V73.7504H35.3127V69.8358C35.1033 69.8148 34.9149 69.8148 34.7475 69.8358Z" fill="white"/>
<path d="M44.7958 74.1273L44.5236 74.2529L44.4189 74.5251L44.5236 74.7972L44.7958 74.9228L45.0679 74.7972L45.1726 74.5251L45.0679 74.2529" fill="white"/>
<path d="M43.9166 74.1273L43.6445 74.2529L43.5398 74.5251L43.6445 74.7972L43.9166 74.9228L44.1888 74.7972L44.2934 74.5251L44.1888 74.2529" fill="white"/>
<path d="M48.5846 73.1643H46.7633C46.8261 72.9759 46.9098 72.8084 46.9936 72.6409C47.0982 72.4734 47.2029 72.3269 47.3076 72.1804C47.4332 72.0338 47.5588 71.9501 47.6844 71.8664C47.81 71.7826 47.9565 71.7408 48.1031 71.7408C48.2706 71.7408 48.3962 71.8036 48.459 71.9082C48.5218 72.0338 48.5636 72.2013 48.5636 72.4734M52.2899 73.1643H51.1385V69.8148H50.4477V73.1643H49.3173V72.3897C49.3173 71.971 49.2126 71.6779 49.0242 71.4686C48.8358 71.2593 48.5636 71.1546 48.2287 71.1546C48.0612 71.1546 47.8728 71.1965 47.7263 71.2593C47.5588 71.343 47.4123 71.4267 47.2867 71.5314C47.161 71.657 47.0354 71.7617 46.9308 71.9082C46.8261 72.0338 46.7424 72.1594 46.6796 72.285C46.7005 72.1594 46.7214 72.0338 46.7424 71.9082C46.7633 71.7826 46.7633 71.6361 46.7633 71.4895V69.8148H46.0725V73.1643H45.0258V71.2383H44.335V73.1643H37.1755V71.2383H36.4847V73.7713C36.4847 74.0644 36.4428 74.2528 36.3172 74.3575C36.2126 74.4622 36.0451 74.525 35.8148 74.525L35.5845 74.504L35.5217 75.0693L35.7939 75.0902C36.066 75.0902 36.2963 75.0483 36.4638 74.9855C36.6312 74.9227 36.7778 74.8181 36.8824 74.6925C36.9871 74.5668 37.0499 74.4203 37.0918 74.2738C37.1336 74.1063 37.1546 73.9388 37.1546 73.7713V73.7504H37.5314C42.2206 73.7504 46.9308 73.7504 51.62 73.7504H52.9598V69.8358H52.2689V73.1643H52.2899Z" fill="white"/>
<path d="M55.514 70.8615L55.7862 70.7359L55.8908 70.4638L55.7862 70.1707L55.514 70.066L55.2419 70.1707L55.1372 70.4638L55.2419 70.7359" fill="white"/>
<path d="M56.4141 70.8615L56.6653 70.7359L56.77 70.4638L56.6653 70.1707L56.4141 70.066L56.142 70.1707L56.0164 70.4638L56.142 70.7359" fill="white"/>
<path d="M64.8926 73.1643H64.6204C64.3483 73.1643 64.1599 73.1015 64.0552 72.9759C63.9505 72.8503 63.8877 72.6619 63.8877 72.3688C63.8877 72.1804 63.9296 72.013 64.0343 71.8874C64.1389 71.7617 64.2645 71.6989 64.3902 71.6989C64.5367 71.6989 64.6414 71.7618 64.746 71.8664C64.8298 71.9711 64.8926 72.1386 64.8926 72.3688M56.4143 73.1643H56.1631L55.8491 73.1015L55.6397 72.9341L55.5141 72.7038L55.4723 72.4107C55.4723 72.2014 55.5351 72.013 55.6397 71.8874C55.7444 71.7617 55.9119 71.6989 56.1003 71.6989H56.2468L56.4143 71.7199V73.1643ZM65.3113 71.5315C65.2275 71.4059 65.1019 71.3221 64.9763 71.2593C64.8298 71.1965 64.6832 71.1547 64.4948 71.1547C64.3064 71.1547 64.118 71.1756 63.9715 71.2384C63.804 71.3012 63.6784 71.3849 63.5528 71.4896C63.4481 71.6152 63.3435 71.7618 63.2806 71.9292C63.2178 72.0967 63.176 72.306 63.176 72.5572L63.155 72.7666L63.0713 72.955L62.9457 73.1015L62.7573 73.1643H57.5866H57.1051V71.2384C56.9586 71.2175 56.812 71.1965 56.6446 71.1756C56.498 71.1547 56.3306 71.1547 56.1631 71.1547C55.9119 71.1547 55.7235 71.1965 55.5351 71.2593C55.3676 71.3431 55.221 71.4477 55.0954 71.5733C54.9908 71.6989 54.907 71.8455 54.8442 72.013C54.7814 72.1804 54.7605 72.3479 54.7605 72.5154C54.7605 72.8922 54.8652 73.1853 55.0745 73.3946C55.2838 73.6039 55.6188 73.7086 56.0584 73.7086H57.461C58.7589 73.7086 60.0777 73.7086 61.3757 73.7086H62.6317C62.862 73.7086 63.0294 73.6667 63.155 73.583C63.2806 73.4993 63.3644 73.3946 63.4272 73.2271L63.5319 73.3946L63.7412 73.5411L64.0552 73.6458C64.1808 73.6668 64.3273 73.6877 64.4948 73.6877H65.5625V72.4526C65.5625 72.2432 65.5415 72.0758 65.4787 71.9083C65.4578 71.7827 65.395 71.6571 65.3113 71.5315Z" fill="white"/>
<path d="M72.1564 72.3898L71.947 72.641L71.7168 72.4107L71.5074 72.2014L71.2981 72.0339L71.0469 71.9083L71.3609 71.7408C71.4656 71.6989 71.5912 71.678 71.7377 71.678C71.9052 71.678 72.0308 71.7199 72.1145 71.8036C72.2192 71.8873 72.261 71.992 72.261 72.1176L72.1564 72.3898ZM76.385 73.1643H75.6314C74.7103 73.1015 73.6008 73.2899 72.7007 73.1015L72.4076 72.955C72.5751 72.8084 72.7007 72.6619 72.7844 72.5154C72.8681 72.3688 72.91 72.2014 72.91 72.0548C72.91 71.9292 72.8891 71.7827 72.8472 71.678L72.6169 71.3849C72.5123 71.3012 72.3866 71.2384 72.2401 71.1756C72.0936 71.1337 71.9261 71.0919 71.7168 71.0919C71.4655 71.0919 71.2353 71.1337 71.005 71.2384C70.7747 71.3221 70.5445 71.4477 70.3351 71.5943L70.2514 72.1804C70.3979 72.2223 70.5235 72.2851 70.6073 72.3479L70.8794 72.5363L71.1097 72.7456L71.3399 72.9759C71.0259 73.1225 70.691 73.1853 70.3142 73.1853H67.1531V69.8358C66.9438 69.8358 66.7554 69.8358 66.567 69.8358C66.3786 69.8567 66.2111 69.8777 66.0227 69.8986V70.3382L66.232 70.3592L66.4205 70.3801V73.7505H70.356C70.5863 73.7505 70.8375 73.7086 71.0887 73.6458C71.3399 73.583 71.5702 73.4993 71.7796 73.3737C71.9261 73.4783 72.1145 73.583 72.282 73.6458C72.4704 73.7086 72.7007 73.7505 72.9309 73.7505H76.9921V69.8358H76.3013V73.1643H76.385Z" fill="white"/>
<path d="M78.2482 69.8358C78.0598 69.8567 77.8923 69.8776 77.7249 69.8986V70.3382L77.9342 70.3591L78.1226 70.3801V73.7504H78.8134V69.8358C78.625 69.8148 78.4366 69.8148 78.2482 69.8358Z" fill="white"/>
<path d="M81.3673 70.8615L81.6394 70.7359L81.7441 70.4638L81.6394 70.1707L81.3673 70.066L81.0951 70.1707L80.9905 70.4638L81.0951 70.7359" fill="white"/>
<path d="M82.2467 70.8615L82.5188 70.7359L82.6235 70.4638L82.5188 70.1707L82.2467 70.066L81.9745 70.1707L81.8699 70.4638L81.9745 70.7359" fill="white"/>
<path d="M90.1597 70.4429H89.8666C89.6363 70.4429 89.5316 70.3801 89.5316 70.2336L89.5944 70.1079L89.741 70.0661L89.8875 70.087L90.0131 70.1289L90.1387 69.8149L89.9503 69.7521C89.5316 69.6474 89.0502 69.8777 89.1548 70.3801L89.2176 70.4848L89.1339 70.4638L89.0292 70.4429H88.9246H88.8408V70.8406H90.1806" fill="white"/>
<path d="M92.944 74.1273L92.6718 74.2529L92.5671 74.5251L92.6718 74.7972L92.944 74.9228L93.2161 74.7972L93.3208 74.5251L93.2161 74.2529" fill="white"/>
<path d="M92.0646 74.1273L91.7924 74.2529L91.6877 74.5251L91.7924 74.7972L92.0646 74.9228L92.3367 74.7972L92.4414 74.5251L92.3367 74.2529" fill="white"/>
<path d="M96.6283 73.1643H96.419L96.2306 73.1224L96.1259 73.0387L96.0631 72.934L96.0421 72.8293L96.1049 72.62L96.2934 72.5362L96.5236 72.6618L96.5864 72.9549M82.2676 73.1643H82.0164L81.7023 73.1015L81.493 72.934L81.3674 72.7037L81.3255 72.4106C81.3255 72.2013 81.3883 72.0129 81.493 71.8873C81.5977 71.7617 81.7442 71.6989 81.9326 71.6989H82.0792L82.2466 71.7198V73.1643H82.2676ZM99.4753 73.1643H98.3868V73.0805C98.3868 72.7037 98.3449 72.3897 98.2612 72.1176C98.1774 71.8454 98.0518 71.6361 97.8843 71.4477C97.7169 71.2802 97.5075 71.1546 97.2773 71.0709C97.047 70.9871 96.7748 70.9452 96.4818 70.9452C96.2934 70.9452 96.1049 70.9662 95.8956 70.9871C95.6863 71.0081 95.5188 71.0499 95.3513 71.1127L95.3095 71.6779C95.5188 71.6361 95.7072 71.5733 95.8747 71.5523C96.0422 71.5314 96.2306 71.5105 96.398 71.5105C96.6492 71.5105 96.8586 71.5523 97.0051 71.6151C97.1726 71.6779 97.2982 71.7826 97.4029 71.9292C97.5075 72.0548 97.5913 72.2222 97.6331 72.4316C97.675 72.6409 97.6959 72.8712 97.6959 73.1433H97.2773C97.2773 72.7665 97.2145 72.4734 97.0679 72.2641C96.9214 72.0548 96.6911 71.9501 96.3562 71.9501C96.2096 71.9501 96.084 71.971 95.9794 72.0129L95.6863 72.2013L95.4979 72.4734C95.456 72.5781 95.4351 72.7037 95.4351 72.8293L95.456 72.9968L95.4979 73.1433H93.2161V71.2174H92.5252V73.1433H89.8875V71.2174H89.1967V73.1433H88.4012C86.7474 73.1433 85.0937 73.1433 83.4399 73.1433H82.9584V71.2174C82.8118 71.1965 82.6653 71.1755 82.4978 71.1546C82.3304 71.1337 82.1838 71.1337 82.0164 71.1337C81.7651 71.1337 81.5767 71.1755 81.3883 71.2383C81.2209 71.3221 81.0743 71.4267 80.9487 71.5523C80.844 71.6779 80.7603 71.8245 80.6975 71.992C80.6347 72.1594 80.6138 72.3269 80.6138 72.4944C80.6138 72.8712 80.7184 73.1643 80.9278 73.3736C81.1371 73.5829 81.4721 73.6876 81.9117 73.6876H83.3143C88.485 73.6876 93.6557 73.6876 98.8054 73.6876H100.124V69.7729H99.4335V73.1643H99.4753Z" fill="white"/>
<path d="M101.359 69.8358C101.171 69.8567 101.003 69.8776 100.836 69.8986V70.3382L101.045 70.3591L101.255 70.3801V73.7504H101.945V69.8358C101.715 69.8148 101.527 69.8148 101.359 69.8358Z" fill="white"/>
<path d="M6.84226 77.2255C7.36561 77.2255 7.67962 77.4348 7.88896 77.9163L7.90989 77.9582L8.49604 77.8745L8.47511 77.8117C8.2239 77.1418 7.65868 76.7859 6.82132 76.7859C5.69088 76.7859 5.021 77.4558 5.021 78.5653C5.021 79.6748 5.69088 80.3447 6.82132 80.3447C7.28187 80.3447 7.67962 80.24 7.93082 80.0516V80.2819H8.45418V78.5443H6.84226V78.984H7.84709V79.1933C7.84709 79.612 7.47028 79.8632 6.86319 79.8632C6.42358 79.8632 5.66995 79.6957 5.66995 78.5234C5.64902 77.393 6.40264 77.2255 6.84226 77.2255Z" fill="white"/>
<path d="M9.7941 78.7118H11.3432V78.2722H9.7941V77.2674H11.9712V76.8278H9.18701V80.3028H12.0759V79.8632H9.7941" fill="white"/>
<path d="M15.2787 79.3189L13.4156 76.8278H12.6201V80.3028H13.1853V77.4348L15.3415 80.3028H15.844V76.8278H15.2787" fill="white"/>
<path d="M17.3515 78.7118H18.9006V78.2722H17.3515V77.2674H19.5286V76.8278H16.7444V80.3028H19.6542V79.8632H17.3515" fill="white"/>
<path d="M22.5427 77.7907C22.5427 78.1675 22.2287 78.335 21.5797 78.335H20.7633V77.2674H21.5797C22.2496 77.2674 22.5427 77.4348 22.5427 77.7907ZM23.1707 77.7698C23.1707 77.1627 22.6055 76.8278 21.6216 76.8278H20.1353V80.3028H20.7633V78.7746H21.7053L22.6055 80.3028H23.2963L22.3333 78.6909C22.8776 78.5234 23.1707 78.2094 23.1707 77.7698Z" fill="white"/>
<path d="M25.8295 78.8165H24.6781L25.2433 77.2464M24.8246 76.8278L23.4011 80.3028H24.0501L24.4688 79.2561H25.976L26.3947 80.3028H27.0436L25.6201 76.8278H24.8246Z" fill="white"/>
<path d="M28.0277 76.8278H27.3997V80.3028H30.1211V79.8632H28.0277" fill="white"/>
<path d="M34.4753 79.1514C34.3497 79.5073 34.1404 79.9051 33.4496 79.9051C32.6959 79.9051 32.2773 79.4236 32.2773 78.5653C32.2773 77.7279 32.675 77.2255 33.3449 77.2255C33.9101 77.2255 34.2241 77.4348 34.3916 77.9373L34.4125 78.0001L34.9987 77.8745L34.9777 77.8117C34.7684 77.1418 34.2241 76.7859 33.4286 76.7859C32.3191 76.7859 31.6702 77.4558 31.6702 78.5653C31.6702 79.6957 32.3191 80.3447 33.4286 80.3447C34.266 80.3447 34.8103 79.9679 35.0405 79.2561L35.0615 79.1933L34.4963 79.1096" fill="white"/>
<path d="M36.2545 76.8278H35.6265V80.3028H36.2545V76.8278Z" fill="white"/>
<path d="M38.3481 79.4864L37.3014 76.8278H36.6733L38.0969 80.3028H38.6202L40.0437 76.8278H39.4157" fill="white"/>
<path d="M41.0695 76.8278H40.4624V80.3028H41.0695V76.8278Z" fill="white"/>
<path d="M42.7023 76.8278H42.0952V80.3028H44.8166V79.8632H42.7023" fill="white"/>
<path d="M48.6059 78.8165H47.4545L48.0407 77.2464M47.622 76.8278L46.1985 80.3028H46.8474L47.2661 79.2561H48.7734L49.1921 80.3028H49.841L48.4175 76.8278H47.622Z" fill="white"/>
<path d="M50.9713 79.4864L49.9037 76.8278H49.2756L50.6991 80.3028H51.2434L52.6669 76.8278H52.018" fill="white"/>
<path d="M53.6928 76.8278H53.0857V80.3028H53.6928V76.8278Z" fill="white"/>
<path d="M56.5607 78.8165H55.4094L55.9955 77.2464M56.3933 76.8278H55.5768L54.1533 80.3028H54.8023L55.221 79.2561H56.7282L57.1469 80.3028H57.7958L56.3933 76.8696V76.8278Z" fill="white"/>
<path d="M57.063 77.2674H58.3818V80.3028H58.9889V77.2674H60.3287V76.8278H57.063" fill="white"/>
<path d="M61.3966 76.8278H60.7896V80.3028H61.3966V76.8278Z" fill="white"/>
<path d="M65.0388 78.5653C65.0388 79.4445 64.6201 79.9051 63.8665 79.9051C63.0919 79.9051 62.6942 79.4445 62.6942 78.5653C62.6942 77.6861 63.1129 77.2255 63.8665 77.2255C64.641 77.2255 65.0388 77.6861 65.0388 78.5653ZM63.8665 76.7859C62.736 76.7859 62.0662 77.4348 62.0662 78.5653C62.0662 79.6957 62.7151 80.3447 63.8665 80.3447C64.9969 80.3447 65.6668 79.6957 65.6668 78.5653C65.6668 77.4348 64.9969 76.7859 63.8665 76.7859Z" fill="white"/>
<path d="M68.8698 79.3189L67.0067 76.8278H66.2112V80.3028H66.7764V77.4348L68.9326 80.3028H69.435V76.8278H68.8698" fill="white"/>
<path d="M73.7475 78.8165H72.5961L73.1823 77.2464M73.58 76.8278H72.7636L71.3401 80.3028H71.989L72.4077 79.2561H73.915L74.3337 80.3028H74.9826L73.58 76.8696V76.8278Z" fill="white"/>
<path d="M77.9343 79.2561C77.9343 79.6539 77.5366 79.9051 76.9295 79.9051C76.3433 79.9051 75.9247 79.6539 75.9247 79.2561V76.8278H75.2966V79.2352C75.2966 79.926 75.9247 80.3656 76.9086 80.3656C77.8925 80.3656 78.5205 79.926 78.5205 79.2352V76.8278H77.9343" fill="white"/>
<path d="M78.918 77.2674H80.2577V80.3028H80.8648V77.2674H82.2046V76.8278H78.918" fill="white"/>
<path d="M85.1773 78.2722H83.1676V76.8278H82.5605V80.3028H83.1676V78.7118H85.1773V80.3028H85.7844V76.8278H85.1773" fill="white"/>
<path d="M89.3015 78.5653C89.3015 79.4445 88.9037 79.9051 88.1292 79.9051C87.3546 79.9051 86.9569 79.4445 86.9569 78.5653C86.9569 77.6861 87.3546 77.2255 88.1292 77.2255C88.9037 77.2255 89.3015 77.6861 89.3015 78.5653ZM88.1292 76.7859C86.9778 76.7859 86.3289 77.4348 86.3289 78.5653C86.3289 79.6957 86.9778 80.3447 88.1292 80.3447C89.2596 80.3447 89.9295 79.6957 89.9295 78.5653C89.9086 77.4348 89.2596 76.7859 88.1292 76.7859Z" fill="white"/>
<path d="M92.8183 77.7907C92.8183 78.1675 92.5043 78.335 91.8553 78.335H91.0389V77.2674H91.8553C92.5252 77.2674 92.8183 77.4348 92.8183 77.7907ZM93.4463 77.7698C93.4463 77.1627 92.8811 76.8278 91.8972 76.8278H90.4109V80.3028H91.0389V78.7746H91.9809L92.8811 80.3028H93.551L92.609 78.6909C93.1532 78.5234 93.4463 78.2094 93.4463 77.7698Z" fill="white"/>
<path d="M94.9955 76.8278H94.3674V80.3028H94.9955V76.8278Z" fill="white"/>
<path d="M101.234 76.8278L100.187 78.3141L99.1614 76.8278H95.4561V77.2674H96.7749V80.3028H97.4029V77.2674H98.7218V77.2046L99.8941 78.8584V80.3028H100.501V78.8584L101.925 76.8278" fill="white"/>
</svg>
